<?xml version="1.0" encoding="UTF-8" standalone="no"?>
<!DOCTYPE svg PUBLIC "-//W3C//DTD SVG 1.1//EN" "http://www.w3.org/Graphics/SVG/1.1/DTD/svg11.dtd">
<svg version="1.1" xmlns="http://www.w3.org/2000/svg" xmlns:xlink="http://www.w3.org/1999/xlink" preserveAspectRatio="xMidYMid meet" viewBox="0 0 640 640" width="25" height="25"><defs><path d="M511.11 214.16C511.11 319.63 425.47 405.26 320 405.26C214.53 405.26 128.89 319.63 128.89 214.16C128.89 108.68 214.53 23.05 320 23.05C425.47 23.05 511.11 108.68 511.11 214.16Z" id="d2IJAWCpie"></path><path d="M445.61 347.67C445.61 364.69 385.74 411.52 382.59 435.51C371.45 520.59 374.22 640 335.56 640C301.35 640 297.83 526.92 272.74 443.09C261.47 405.43 203.55 371.65 203.55 347.67C203.55 270.32 278.7 250.23 328.27 250.23C377.84 250.23 445.61 270.32 445.61 347.67Z" id="b2hXysJVG"></path><path d="M411.28 209.24C411.28 248.16 371.15 279.76 321.73 279.76C272.3 279.76 232.18 248.16 232.18 209.24C232.18 170.31 272.3 138.71 321.73 138.71C371.15 138.71 411.28 170.31 411.28 209.24Z" id="aKCCkgMlA"></path></defs><g><g><g><use xlink:href="#d2IJAWCpie" opacity="1" fill="#ec0000" fill-opacity="1"></use></g><g><use xlink:href="#b2hXysJVG" opacity="1" fill="#ec0000" fill-opacity="1"></use></g><g><use xlink:href="#aKCCkgMlA" opacity="1" fill="#fff000" fill-opacity="1"></use></g></g></g></svg>